<?xml version="1.0" encoding="UTF-8"?>
<svg width="35px" height="35px" viewBox="0 0 48 48" version="1.1" xmlns="http://www.w3.org/2000/svg" xmlns:xlink="http://www.w3.org/1999/xlink">
    <title>Icons- Link</title>
    <g id="Icons--Link" stroke="none" stroke-width="1" fill="none" fill-rule="evenodd">
        <rect id="Bound" x="0" y="0" width="48" height="48"></rect>
        <g id="􀉣" transform="translate(14.000000, 14.000000)" fill="#888888" fill-rule="nonzero">
            <path d="M9.8821172,13.8763753 L11.1363902,12.6060114 C9.89154782,12.5119103 9.08051414,12.1355062 8.46752356,11.5238495 C6.81716432,9.87708144 6.82659495,7.54337584 8.45809294,5.91542798 L11.5324764,2.84773432 C13.1828357,1.21037636 15.5027692,1.20096625 17.1531285,2.84773432 C18.8034877,4.49450239 18.7846265,6.81879789 17.1531285,8.44674575 L15.3047261,10.291126 C15.5687836,10.8933726 15.6253673,11.5897202 15.5310611,12.2013769 L18.3036646,9.44421669 C20.5575838,7.18579191 20.5764451,3.99576691 18.294234,1.70911183 C16.0025923,-0.57754326 12.7961801,-0.558723053 10.5328303,1.69970172 L7.31698741,4.91795703 C5.05363759,7.17638181 5.03477635,10.3758169 7.32641803,12.6530619 C7.92054736,13.2458984 8.6749973,13.669353 9.8821172,13.8763753 Z M10.1178828,6.12245025 L8.86360978,7.39281418 C10.1084522,7.49632532 10.9194859,7.86331935 11.5324764,8.47497606 C13.1828357,10.1217441 13.1734051,12.4554497 11.5419071,14.0833976 L8.45809294,17.1510912 C6.81716432,18.7884492 4.49723077,18.7978593 2.84687153,17.1605013 C1.19651229,15.5043232 1.20594291,13.1894378 2.84687153,11.5520798 L4.69527387,9.70769958 C4.4312164,9.11486308 4.36520203,8.40910533 4.46893889,7.79744862 L1.69633537,10.5546089 C-0.557583819,12.8130337 -0.576445068,16.0124688 1.70576599,18.2897137 C3.99740768,20.5763688 7.20381992,20.5575486 9.45773911,18.3085339 L12.6830126,15.0808685 C14.9463624,12.8224438 14.9652237,9.62300865 12.673582,7.34576367 C12.0794526,6.75292716 11.3250027,6.32947252 10.1178828,6.12245025 Z" id="Shape"></path>
        </g>
    </g>
</svg>