<?xml version="1.0" encoding="UTF-8"?>
<svg width="24px" height="24px" viewBox="0 0 24 24" version="1.1" xmlns="http://www.w3.org/2000/svg" xmlns:xlink="http://www.w3.org/1999/xlink">
    <title>Icons/Comment - 24</title>
    <g id="Icons/Comment---24" stroke="none" stroke-width="1" fill="none" fill-rule="evenodd">
        <rect id="Bound" x="0" y="0" width="24" height="24"></rect>
        <g id="Vector" transform="translate(2.000000, 3.000000)" stroke="#666666" stroke-width="1.4">
            <path d="M15.7889,14.9458034 L13.6805,14.9458034 C13.412,14.9455034 13.1468,15.0045034 12.9041,15.1186034 C12.6613,15.2327034 12.4471,15.3991034 12.2768,15.6056034 L10.5526,17.6842034 C10.474,17.7827034 10.374,17.8622034 10.2601,17.9169034 C10.1462,17.9716034 10.0214,18 9.895,18 C9.7686,18 9.6438,17.9716034 9.5299,17.9169034 C9.416,17.8622034 9.316,17.7827034 9.2374,17.6842034 L7.54632,15.4847034 C7.41648,15.3160034 7.2491,15.1795034 7.05733,15.0860034 C6.86555,14.9925034 6.65461,14.9445034 6.44105,14.9458034 L4.42105,14.9458034 C3.24852,14.9458034 2.124,14.4823034 1.2949,13.6573034 C0.46579,12.8323034 0,11.7134034 0,10.5467034 L0,4.45405338 C0.00293,3.27176338 0.47699,2.13888338 1.31822,1.30390338 C2.15945,0.468923382 3.29916,5.55111512e-16 4.48737,5.55111512e-16 L15.4684,5.55111512e-16 C16.063,-0.00142961821 16.652,0.113843382 17.2017,0.339243382 C17.7515,0.564643382 18.2511,0.895743382 18.6721,1.31356338 C19.093,1.73139338 19.427,2.22773338 19.6548,2.77418338 C19.8827,3.32062338 20,3.90643338 20,4.49804338 L20,10.7667034 C20,11.3164034 19.891,11.8608034 19.6792,12.3685034 C19.4675,12.8763034 19.1571,13.3374034 18.7659,13.7256034 C18.3748,14.1139034 17.9105,14.4215034 17.3996,14.6308034 C16.8888,14.8402034 16.3414,14.9472034 15.7889,14.9458034 Z" id="Path"></path>
        </g>
    </g>
</svg>