<svg width="28" height="28" viewBox="0 0 28 28" fill="none" xmlns="http://www.w3.org/2000/svg">
<path fill-rule="evenodd" clip-rule="evenodd" d="M12.3483 21.8565C11.5072 21.195 10.7492 20.0515 10.2271 18.5607C9.48591 18.9313 8.85782 19.3512 8.38704 19.7386C9.45941 20.7875 10.8244 21.5377 12.3483 21.8565ZM11.7686 19.6356C11.5262 19.206 11.3058 18.713 11.1182 18.1636C11.7981 17.8967 12.544 17.6842 13.331 17.5727C13.3918 17.5637 13.4528 17.5559 13.5141 17.5481V21.4257C12.9898 21.2183 12.3558 20.6754 11.7686 19.6356ZM13.194 16.6106C13.3001 16.5951 13.4067 16.5821 13.5141 16.5698V14.4869H10.4804C10.5127 15.4833 10.6434 16.4033 10.8452 17.2268C11.5689 16.9495 12.3594 16.7292 13.194 16.6106ZM9.50806 14.4869C9.5426 15.6213 9.69706 16.6735 9.94152 17.6181C9.04597 18.0502 8.29121 18.5536 7.73374 19.0175C6.72636 17.7619 6.08887 16.1966 5.98643 14.4869H9.50806ZM10.4803 13.5151C10.5174 12.3696 10.6843 11.3259 10.9398 10.4124C11.4951 10.5912 12.083 10.7324 12.6947 10.8192C12.9636 10.8575 13.237 10.8853 13.5141 10.9009V13.5151H10.4803ZM14.486 14.4869V16.5141C15.3755 16.5083 16.2973 16.6314 17.2253 16.9274C17.3877 16.1824 17.4924 15.3641 17.5209 14.4869H14.486ZM17.521 13.5151H14.486V10.9054C15.3256 10.8646 16.189 10.7046 17.0552 10.3897C17.3143 11.3084 17.4837 12.3599 17.521 13.5151ZM18.4933 14.4869C18.4628 15.4866 18.3391 16.4234 18.1428 17.2786C18.9248 17.6278 19.7053 18.1111 20.4687 18.7545C21.3588 17.5455 21.9182 16.0787 22.0136 14.4869H18.4933ZM22.0137 13.5151H18.4933C18.4542 12.2264 18.2604 11.0434 17.9558 10.0049C18.6407 9.66667 19.3229 9.22352 19.9918 8.65662C21.158 9.9634 21.9029 11.6537 22.0137 13.5151ZM9.50801 13.5151H5.98625C6.09121 11.7515 6.76544 10.1416 7.82776 8.86589C8.43143 9.29154 9.17731 9.71979 10.0254 10.0742C9.73238 11.0965 9.54624 12.2549 9.50801 13.5151ZM14.486 21.4263V17.4853C15.2944 17.4801 16.1327 17.5928 16.9787 17.8695C16.7722 18.5381 16.5176 19.1309 16.2327 19.6356C15.6451 20.6767 15.0105 21.219 14.486 21.4263ZM15.6536 21.8565C16.5558 21.1464 17.3623 19.8824 17.8845 18.229C18.5419 18.5381 19.1993 18.9553 19.8463 19.5008C18.7423 20.6735 17.2894 21.5138 15.6536 21.8565ZM8.50134 8.15063C9.0143 8.50113 9.63481 8.85228 10.3332 9.14966C10.8499 7.79819 11.5639 6.75899 12.3506 6.14156C10.8795 6.44866 9.55622 7.15808 8.50134 8.15063ZM13.5141 9.92776C13.2836 9.91286 13.0559 9.88954 12.8316 9.85714C12.2793 9.77875 11.7472 9.65047 11.2439 9.48915C11.4017 9.0771 11.5784 8.70133 11.7686 8.36443C12.3557 7.32394 12.9898 6.78166 13.5141 6.57434V9.92776ZM16.7489 9.46712C15.9849 9.7483 15.2251 9.89213 14.486 9.9323V6.5737C15.0105 6.78102 15.6451 7.32329 16.2327 8.36443C16.4195 8.69485 16.5932 9.06349 16.7489 9.46712ZM19.2993 7.96923C18.7513 8.42533 18.1959 8.79009 17.6396 9.0758C17.1255 7.76061 16.4234 6.74798 15.6512 6.14156C17.0304 6.42987 18.2795 7.07256 19.2993 7.96923ZM23 13.999C23 18.8063 19.2305 22.7331 14.486 22.9857V23H13.5141V22.9857C8.76946 22.7331 5 18.8063 5 13.999C5 9.02915 9.02947 5 14 5C18.9705 5 23 9.02915 23 13.999Z" fill="#888888"/>
<path d="M12.3483 21.8565L12.3252 21.9666L12.4178 21.7681L12.3483 21.8565ZM10.2271 18.5607L10.3333 18.5236L10.2911 18.403L10.1768 18.4601L10.2271 18.5607ZM8.38704 19.7386L8.31555 19.6517L8.21877 19.7314L8.30837 19.819L8.38704 19.7386ZM11.7686 19.6356L11.6706 19.6909L11.6707 19.6909L11.7686 19.6356ZM11.1182 18.1636L11.0771 18.0589L10.977 18.0982L11.0118 18.1999L11.1182 18.1636ZM13.331 17.5727L13.3468 17.6841L13.3476 17.684L13.331 17.5727ZM13.5141 17.5481H13.6266V17.4204L13.5 17.4365L13.5141 17.5481ZM13.5141 21.4257L13.4727 21.5303L13.6266 21.5911V21.4257H13.5141ZM13.194 16.6106L13.2098 16.722L13.2103 16.7219L13.194 16.6106ZM13.5141 16.5698L13.5269 16.6816L13.6266 16.6701V16.5698H13.5141ZM13.5141 14.4869H13.6266V14.3744H13.5141V14.4869ZM10.4804 14.4869V14.3744H10.3642L10.368 14.4905L10.4804 14.4869ZM10.8452 17.2268L10.736 17.2535L10.7663 17.3775L10.8855 17.3318L10.8452 17.2268ZM9.50806 14.4869L9.62051 14.4835L9.61719 14.3744H9.50806V14.4869ZM9.94152 17.6181L9.99041 17.7194L10.0736 17.6793L10.0504 17.5899L9.94152 17.6181ZM7.73374 19.0175L7.64599 19.0879L7.71766 19.1772L7.8057 19.104L7.73374 19.0175ZM5.98643 14.4869V14.3744H5.86699L5.87414 14.4936L5.98643 14.4869ZM10.4803 13.5151L10.3679 13.5114L10.3641 13.6276H10.4803V13.5151ZM10.9398 10.4124L10.9743 10.3053L10.8629 10.2694L10.8314 10.3821L10.9398 10.4124ZM12.6947 10.8192L12.7105 10.7079L12.7105 10.7079L12.6947 10.8192ZM13.5141 10.9009H13.6266V10.7945L13.5204 10.7886L13.5141 10.9009ZM13.5141 13.5151V13.6276H13.6266V13.5151H13.5141ZM14.486 14.4869V14.3744H14.3735V14.4869H14.486ZM14.486 16.5141H14.3735V16.6273L14.4867 16.6266L14.486 16.5141ZM17.2253 16.9274L17.1911 17.0346L17.3089 17.0722L17.3352 16.9514L17.2253 16.9274ZM17.5209 14.4869L17.6334 14.4905L17.6372 14.3744H17.5209V14.4869ZM17.521 13.5151V13.6276H17.6372L17.6334 13.5114L17.521 13.5151ZM14.486 13.5151H14.3735V13.6276H14.486V13.5151ZM14.486 10.9054L14.4805 10.793L14.3735 10.7982V10.9054H14.486ZM17.0552 10.3897L17.1635 10.3592L17.1306 10.2426L17.0168 10.284L17.0552 10.3897ZM18.4933 14.4869V14.3744H18.3842L18.3808 14.4835L18.4933 14.4869ZM18.1428 17.2786L18.0331 17.2534L18.0124 17.3436L18.0969 17.3813L18.1428 17.2786ZM20.4687 18.7545L20.3962 18.8405L20.4881 18.9179L20.5593 18.8212L20.4687 18.7545ZM22.0136 14.4869L22.1259 14.4936L22.133 14.3744H22.0136V14.4869ZM22.0137 13.5151V13.6276H22.1331L22.126 13.5084L22.0137 13.5151ZM18.4933 13.5151L18.3809 13.5185L18.3842 13.6276H18.4933V13.5151ZM17.9558 10.0049L17.906 9.90399L17.8212 9.94583L17.8478 10.0365L17.9558 10.0049ZM19.9918 8.65662L20.0758 8.58172L20.0028 8.4999L19.9191 8.5708L19.9918 8.65662ZM9.50801 13.5151V13.6276H9.61715L9.62046 13.5185L9.50801 13.5151ZM5.98625 13.5151L5.87395 13.5084L5.86686 13.6276H5.98625V13.5151ZM7.82776 8.86589L7.89259 8.77395L7.80775 8.71412L7.74131 8.7939L7.82776 8.86589ZM10.0254 10.0742L10.1335 10.1052L10.1611 10.009L10.0687 9.97038L10.0254 10.0742ZM14.486 21.4263H14.3735V21.5917L14.5273 21.5309L14.486 21.4263ZM14.486 17.4853L14.4852 17.3728L14.3735 17.3735V17.4853H14.486ZM16.9787 17.8695L17.0862 17.9027L17.1188 17.7969L17.0137 17.7625L16.9787 17.8695ZM16.2327 19.6356L16.1348 19.5803L16.1348 19.5803L16.2327 19.6356ZM15.6536 21.8565L15.584 21.7681L15.6766 21.9666L15.6536 21.8565ZM17.8845 18.229L17.9323 18.1272L17.816 18.0725L17.7772 18.1951L17.8845 18.229ZM19.8463 19.5008L19.9282 19.5779L20.0097 19.4914L19.9188 19.4148L19.8463 19.5008ZM8.50134 8.15063L8.42425 8.0687L8.32235 8.16458L8.43787 8.24352L8.50134 8.15063ZM10.3332 9.14966L10.2891 9.25317L10.3966 9.29892L10.4383 9.18983L10.3332 9.14966ZM12.3506 6.14156L12.4201 6.23006L12.3276 6.03144L12.3506 6.14156ZM13.5141 9.92776L13.5068 10.04L13.6266 10.0478V9.92776H13.5141ZM12.8316 9.85714L12.8477 9.7458L12.8474 9.74576L12.8316 9.85714ZM11.2439 9.48915L11.1388 9.44889L11.0962 9.55997L11.2095 9.59628L11.2439 9.48915ZM11.7686 8.36443L11.8666 8.41973L11.8666 8.41972L11.7686 8.36443ZM13.5141 6.57434H13.6266V6.40888L13.4727 6.46973L13.5141 6.57434ZM16.7489 9.46712L16.7877 9.5727L16.895 9.53324L16.8538 9.42663L16.7489 9.46712ZM14.486 9.9323H14.3735V10.0511L14.4921 10.0446L14.486 9.9323ZM14.486 6.5737L14.5273 6.46907L14.3735 6.40827V6.5737H14.486ZM16.2327 8.36443L16.1348 8.41973L16.1348 8.41978L16.2327 8.36443ZM19.2993 7.96923L19.3713 8.0557L19.4724 7.97158L19.3736 7.88474L19.2993 7.96923ZM17.6396 9.0758L17.5348 9.11676L17.5802 9.23279L17.691 9.17588L17.6396 9.0758ZM15.6512 6.14156L15.6743 6.03144L15.5818 6.23004L15.6512 6.14156ZM14.486 22.9857L14.48 22.8734L14.3735 22.8791V22.9857H14.486ZM14.486 23V23.1125H14.5985V23H14.486ZM13.5141 23H13.4016V23.1125H13.5141V23ZM13.5141 22.9857H13.6266V22.8791L13.5201 22.8734L13.5141 22.9857ZM12.4178 21.7681C11.5987 21.1239 10.8508 20.0013 10.3333 18.5236L10.1209 18.5979C10.6475 20.1017 11.4156 21.2662 12.2787 21.9449L12.4178 21.7681ZM10.1768 18.4601C9.42827 18.8344 8.79304 19.2588 8.31555 19.6517L8.45853 19.8254C8.9226 19.4435 9.54355 19.0283 10.2774 18.6614L10.1768 18.4601ZM8.30837 19.819C9.39566 20.8825 10.7799 21.6433 12.3252 21.9666L12.3713 21.7464C10.869 21.4321 9.52315 20.6925 8.4657 19.6582L8.30837 19.819ZM11.8666 19.5803C11.6279 19.1573 11.4102 18.6707 11.2247 18.1272L11.0118 18.1999C11.2014 18.7553 11.4245 19.2547 11.6706 19.6909L11.8666 19.5803ZM11.1594 18.2683C11.8322 18.0041 12.5696 17.7942 13.3468 17.6841L13.3152 17.4613C12.5185 17.5742 11.764 17.7892 11.0771 18.0589L11.1594 18.2683ZM13.3476 17.684C13.407 17.6751 13.4668 17.6675 13.5283 17.6597L13.5 17.4365C13.4388 17.4443 13.3766 17.4522 13.3144 17.4615L13.3476 17.684ZM13.4016 17.5481V21.4257H13.6266V17.5481H13.4016ZM13.5555 21.321C13.0631 21.1263 12.446 20.6065 11.8666 19.5803L11.6707 19.6909C12.2655 20.7443 12.9165 21.3103 13.4727 21.5303L13.5555 21.321ZM13.2103 16.7219C13.3146 16.7066 13.4199 16.6938 13.5269 16.6816L13.5013 16.458C13.3935 16.4704 13.2855 16.4835 13.1777 16.4993L13.2103 16.7219ZM13.6266 16.5698V14.4869H13.4016V16.5698H13.6266ZM13.5141 14.3744H10.4804V14.5994H13.5141V14.3744ZM10.368 14.4905C10.4005 15.4945 10.5322 16.4222 10.736 17.2535L10.9545 17.2C10.7546 16.3844 10.6249 15.4721 10.5928 14.4832L10.368 14.4905ZM10.8855 17.3318C11.6023 17.0572 12.3846 16.8392 13.2098 16.722L13.1782 16.4992C12.3342 16.6191 11.5355 16.8418 10.805 17.1217L10.8855 17.3318ZM9.39561 14.4903C9.43039 15.6328 9.58597 16.6932 9.83261 17.6463L10.0504 17.5899C9.80815 16.6537 9.6548 15.6099 9.62051 14.4835L9.39561 14.4903ZM9.89263 17.5168C8.98893 17.9528 8.2264 18.4612 7.66178 18.931L7.8057 19.104C8.35601 18.646 9.10301 18.1476 9.99041 17.7194L9.89263 17.5168ZM7.82149 18.9471C6.8282 17.7091 6.19973 16.1659 6.09873 14.4802L5.87414 14.4936C5.97801 16.2274 6.62452 17.8147 7.64599 19.0879L7.82149 18.9471ZM5.98643 14.5994H9.50806V14.3744H5.98643V14.5994ZM10.5928 13.5187C10.6296 12.3819 10.7952 11.3471 11.0481 10.4427L10.8314 10.3821C10.5734 11.3046 10.4052 12.3574 10.3679 13.5114L10.5928 13.5187ZM10.9053 10.5195C11.4662 10.7001 12.0604 10.8428 12.6789 10.9306L12.7105 10.7079C12.1057 10.622 11.524 10.4823 10.9743 10.3053L10.9053 10.5195ZM12.6788 10.9306C12.9508 10.9693 13.2274 10.9975 13.5078 11.0132L13.5204 10.7886C13.2467 10.7732 12.9765 10.7457 12.7105 10.7079L12.6788 10.9306ZM13.4016 10.9009V13.5151H13.6266V10.9009H13.4016ZM13.5141 13.4026H10.4803V13.6276H13.5141V13.4026ZM14.3735 14.4869V16.5141H14.5985V14.4869H14.3735ZM14.4867 16.6266C15.3652 16.6208 16.2752 16.7424 17.1911 17.0346L17.2595 16.8203C16.3194 16.5203 15.3857 16.3957 14.4852 16.4016L14.4867 16.6266ZM17.3352 16.9514C17.4991 16.1995 17.6047 15.3744 17.6334 14.4905L17.4085 14.4832C17.3802 15.3538 17.2763 16.1653 17.1154 16.9035L17.3352 16.9514ZM17.5209 14.3744H14.486V14.5994H17.5209V14.3744ZM17.521 13.4026H14.486V13.6276H17.521V13.4026ZM14.5985 13.5151V10.9054H14.3735V13.5151H14.5985ZM14.4914 11.0178C15.3417 10.9764 16.2163 10.8144 17.0936 10.4954L17.0168 10.284C16.1618 10.5948 15.3095 10.7527 14.4805 10.793L14.4914 11.0178ZM16.9469 10.4202C17.2035 11.3298 17.3715 12.3722 17.4086 13.5187L17.6334 13.5114C17.5958 12.3476 17.4252 11.287 17.1635 10.3592L16.9469 10.4202ZM18.3808 14.4835C18.3506 15.476 18.2278 16.4056 18.0331 17.2534L18.2524 17.3038C18.4505 16.4412 18.5751 15.4971 18.6057 14.4903L18.3808 14.4835ZM18.0969 17.3813C18.869 17.7261 19.6405 18.2037 20.3962 18.8405L20.5412 18.6684C19.77 18.0186 18.9806 17.5295 18.1886 17.1759L18.0969 17.3813ZM20.5593 18.8212C21.4618 17.5953 22.0291 16.1078 22.1259 14.4936L21.9013 14.4802C21.8072 16.0496 21.2557 17.4957 20.3781 18.6878L20.5593 18.8212ZM22.0136 14.3744H18.4933V14.5994H22.0136V14.3744ZM22.0137 13.4026H18.4933V13.6276H22.0137V13.4026ZM18.6058 13.5116C18.5664 12.2139 18.3712 11.0214 18.0637 9.97319L17.8478 10.0365C18.1496 11.0654 18.342 12.2389 18.3809 13.5185L18.6058 13.5116ZM18.0056 10.1057C18.699 9.76335 19.3888 9.31509 20.0646 8.74245L19.9191 8.5708C19.2569 9.13194 18.5824 9.56998 17.906 9.90399L18.0056 10.1057ZM19.9079 8.73153C21.0578 10.0201 21.7922 11.6866 21.9014 13.5217L22.126 13.5084C22.0137 11.6208 21.2582 9.9067 20.0758 8.58172L19.9079 8.73153ZM9.50801 13.4026H5.98625V13.6276H9.50801V13.4026ZM6.09855 13.5217C6.20204 11.783 6.86672 10.1957 7.91421 8.93788L7.74131 8.7939C6.66416 10.0874 5.98039 11.7201 5.87395 13.5084L6.09855 13.5217ZM7.76293 8.95783C8.37299 9.38799 9.12604 9.82029 9.98199 10.178L10.0687 9.97038C9.22859 9.61929 8.48987 9.19509 7.89259 8.77395L7.76293 8.95783ZM9.91722 10.0432C9.62154 11.0749 9.43406 12.2426 9.39556 13.5117L9.62046 13.5185C9.65841 12.2672 9.84322 11.1181 10.1335 10.1052L9.91722 10.0432ZM14.5985 21.4263V17.4853H14.3735V21.4263H14.5985ZM14.4867 17.5978C15.2841 17.5926 16.1102 17.7038 16.9437 17.9764L17.0137 17.7625C16.1552 17.4818 15.3048 17.3675 14.4852 17.3728L14.4867 17.5978ZM16.8712 17.8363C16.6668 18.498 16.4153 19.0833 16.1348 19.5803L16.3307 19.6909C16.62 19.1785 16.8776 18.5781 17.0862 17.9027L16.8712 17.8363ZM16.1348 19.5803C15.5548 20.6077 14.9373 21.127 14.4446 21.3217L14.5273 21.5309C15.0838 21.311 15.7353 20.7457 16.3307 19.6909L16.1348 19.5803ZM15.7232 21.9449C16.6487 21.2165 17.4653 19.9299 17.9918 18.2629L17.7772 18.1951C17.2593 19.8349 16.4629 21.0764 15.584 21.7681L15.7232 21.9449ZM17.8366 18.3308C18.4848 18.6355 19.134 19.0474 19.7738 19.5868L19.9188 19.4148C19.2647 18.8632 18.599 18.4406 17.9323 18.1272L17.8366 18.3308ZM19.7644 19.4237C18.6758 20.5801 17.2432 21.4085 15.6305 21.7464L15.6766 21.9666C17.3357 21.619 18.8089 20.7669 19.9282 19.5779L19.7644 19.4237ZM8.43787 8.24352C8.95664 8.59799 9.58363 8.95276 10.2891 9.25317L10.3773 9.04615C9.686 8.75181 9.07196 8.40428 8.56481 8.05775L8.43787 8.24352ZM10.4383 9.18983C10.9501 7.8509 11.6541 6.83121 12.4201 6.23006L12.2812 6.05306C11.4737 6.68677 10.7496 7.74547 10.2281 9.10949L10.4383 9.18983ZM12.3276 6.03144C10.8357 6.34288 9.49382 7.06233 8.42425 8.0687L8.57843 8.23257C9.61862 7.25384 10.9233 6.55444 12.3736 6.25169L12.3276 6.03144ZM13.5213 9.8155C13.2936 9.80077 13.0689 9.77774 12.8477 9.7458L12.8156 9.96849C13.0429 10.0013 13.2735 10.0249 13.5068 10.04L13.5213 9.8155ZM12.8474 9.74576C12.302 9.66835 11.7761 9.54161 11.2782 9.38202L11.2095 9.59628C11.7182 9.75933 12.2566 9.88915 12.8158 9.96853L12.8474 9.74576ZM11.3489 9.5294C11.505 9.12216 11.6793 8.75146 11.8666 8.41973L11.6706 8.30913C11.4775 8.6512 11.2985 9.03203 11.1388 9.44889L11.3489 9.5294ZM11.8666 8.41972C12.446 7.39288 13.0631 6.87366 13.5555 6.67896L13.4727 6.46973C12.9165 6.68966 12.2655 7.255 11.6706 8.30914L11.8666 8.41972ZM13.4016 6.57434V9.92776H13.6266V6.57434H13.4016ZM16.71 9.36154C15.9572 9.63861 15.2085 9.78036 14.4799 9.81996L14.4921 10.0446C15.2417 10.0039 16.0125 9.85799 16.7877 9.5727L16.71 9.36154ZM14.5985 9.9323V6.5737H14.3735V9.9323H14.5985ZM14.4446 6.67832C14.9373 6.87303 15.5548 7.39226 16.1348 8.41973L16.3307 8.30913C15.7353 7.25432 15.0838 6.689 14.5273 6.46907L14.4446 6.67832ZM16.1348 8.41978C16.3186 8.74506 16.49 9.10869 16.6439 9.50761L16.8538 9.42663C16.6963 9.01829 16.5203 8.64464 16.3307 8.30908L16.1348 8.41978ZM19.2274 7.88275C18.6854 8.33379 18.1369 8.69392 17.5882 8.97573L17.691 9.17588C18.2549 8.88626 18.8171 8.51688 19.3713 8.0557L19.2274 7.88275ZM17.7444 9.03484C17.2254 7.70725 16.5132 6.67551 15.7207 6.05309L15.5818 6.23004C16.3335 6.82045 17.0255 7.81397 17.5348 9.11676L17.7444 9.03484ZM15.6282 6.25168C16.9878 6.5359 18.2194 7.16951 19.2251 8.05371L19.3736 7.88474C18.3396 6.97561 17.073 6.32384 15.6743 6.03144L15.6282 6.25168ZM22.8875 13.999C22.8875 18.7461 19.1652 22.6239 14.48 22.8734L14.492 23.0981C19.2959 22.8423 23.1125 18.8664 23.1125 13.999H22.8875ZM14.3735 22.9857V23H14.5985V22.9857H14.3735ZM14.486 22.8875H13.5141V23.1125H14.486V22.8875ZM13.6266 23V22.9857H13.4016V23H13.6266ZM13.5201 22.8734C8.83483 22.6239 5.1125 18.7461 5.1125 13.999H4.8875C4.8875 18.8664 8.70408 22.8423 13.5081 23.0981L13.5201 22.8734ZM5.1125 13.999C5.1125 9.0913 9.09159 5.1125 14 5.1125V4.8875C8.96734 4.8875 4.8875 8.96701 4.8875 13.999H5.1125ZM14 5.1125C18.9084 5.1125 22.8875 9.0913 22.8875 13.999H23.1125C23.1125 8.96701 19.0327 4.8875 14 4.8875V5.1125Z" fill="#888888"/>
<mask id="mask0_8_3293" style="mask-type:alpha" maskUnits="userSpaceOnUse" x="4" y="4" width="20" height="20">
<path fill-rule="evenodd" clip-rule="evenodd" d="M12.3483 21.8565C11.5072 21.195 10.7492 20.0515 10.2271 18.5607C9.48591 18.9313 8.85782 19.3512 8.38704 19.7386C9.45941 20.7875 10.8244 21.5377 12.3483 21.8565ZM11.7686 19.6356C11.5262 19.206 11.3058 18.713 11.1182 18.1636C11.7981 17.8967 12.544 17.6842 13.331 17.5727C13.3918 17.5637 13.4528 17.5559 13.5141 17.5481V21.4257C12.9898 21.2183 12.3558 20.6754 11.7686 19.6356ZM13.194 16.6106C13.3001 16.5951 13.4067 16.5821 13.5141 16.5698V14.4869H10.4804C10.5127 15.4833 10.6434 16.4033 10.8452 17.2268C11.5689 16.9495 12.3594 16.7292 13.194 16.6106ZM9.50806 14.4869C9.5426 15.6213 9.69706 16.6735 9.94152 17.6181C9.04597 18.0502 8.29121 18.5536 7.73374 19.0175C6.72636 17.7619 6.08887 16.1966 5.98643 14.4869H9.50806ZM10.4803 13.5151C10.5174 12.3696 10.6843 11.3259 10.9398 10.4124C11.4951 10.5912 12.083 10.7324 12.6947 10.8192C12.9636 10.8575 13.237 10.8853 13.5141 10.9009V13.5151H10.4803ZM14.486 14.4869V16.5141C15.3755 16.5083 16.2973 16.6314 17.2253 16.9274C17.3877 16.1824 17.4924 15.3641 17.5209 14.4869H14.486ZM17.521 13.5151H14.486V10.9054C15.3256 10.8646 16.189 10.7046 17.0552 10.3897C17.3143 11.3084 17.4837 12.3599 17.521 13.5151ZM18.4933 14.4869C18.4628 15.4866 18.3391 16.4234 18.1428 17.2786C18.9248 17.6278 19.7053 18.1111 20.4687 18.7545C21.3588 17.5455 21.9182 16.0787 22.0136 14.4869H18.4933ZM22.0137 13.5151H18.4933C18.4542 12.2264 18.2604 11.0434 17.9558 10.0049C18.6407 9.66667 19.3229 9.22352 19.9918 8.65662C21.158 9.9634 21.9029 11.6537 22.0137 13.5151ZM9.50801 13.5151H5.98625C6.09121 11.7515 6.76544 10.1416 7.82776 8.86589C8.43143 9.29154 9.17731 9.71979 10.0254 10.0742C9.73238 11.0965 9.54624 12.2549 9.50801 13.5151ZM14.486 21.4263V17.4853C15.2944 17.4801 16.1327 17.5928 16.9787 17.8695C16.7722 18.5381 16.5176 19.1309 16.2327 19.6356C15.6451 20.6767 15.0105 21.219 14.486 21.4263ZM15.6536 21.8565C16.5558 21.1464 17.3623 19.8824 17.8845 18.229C18.5419 18.5381 19.1993 18.9553 19.8463 19.5008C18.7423 20.6735 17.2894 21.5138 15.6536 21.8565ZM8.50134 8.15063C9.0143 8.50113 9.63481 8.85228 10.3332 9.14966C10.8499 7.79819 11.5639 6.75899 12.3506 6.14156C10.8795 6.44866 9.55622 7.15808 8.50134 8.15063ZM13.5141 9.92776C13.2836 9.91286 13.0559 9.88954 12.8316 9.85714C12.2793 9.77875 11.7472 9.65047 11.2439 9.48915C11.4017 9.0771 11.5784 8.70133 11.7686 8.36443C12.3557 7.32394 12.9898 6.78166 13.5141 6.57434V9.92776ZM16.7489 9.46712C15.9849 9.7483 15.2251 9.89213 14.486 9.9323V6.5737C15.0105 6.78102 15.6451 7.32329 16.2327 8.36443C16.4195 8.69485 16.5932 9.06349 16.7489 9.46712ZM19.2993 7.96923C18.7513 8.42533 18.1959 8.79009 17.6396 9.0758C17.1255 7.76061 16.4234 6.74798 15.6512 6.14156C17.0304 6.42987 18.2795 7.07256 19.2993 7.96923ZM23 13.999C23 18.8063 19.2305 22.7331 14.486 22.9857V23H13.5141V22.9857C8.76946 22.7331 5 18.8063 5 13.999C5 9.02915 9.02947 5 14 5C18.9705 5 23 9.02915 23 13.999Z" fill="white"/>
<path d="M12.3483 21.8565L12.3252 21.9666L12.4178 21.7681L12.3483 21.8565ZM10.2271 18.5607L10.3333 18.5236L10.2911 18.403L10.1768 18.4601L10.2271 18.5607ZM8.38704 19.7386L8.31555 19.6517L8.21877 19.7314L8.30837 19.819L8.38704 19.7386ZM11.7686 19.6356L11.6706 19.6909L11.6707 19.6909L11.7686 19.6356ZM11.1182 18.1636L11.0771 18.0589L10.977 18.0982L11.0118 18.1999L11.1182 18.1636ZM13.331 17.5727L13.3468 17.6841L13.3476 17.684L13.331 17.5727ZM13.5141 17.5481H13.6266V17.4204L13.5 17.4365L13.5141 17.5481ZM13.5141 21.4257L13.4727 21.5303L13.6266 21.5911V21.4257H13.5141ZM13.194 16.6106L13.2098 16.722L13.2103 16.7219L13.194 16.6106ZM13.5141 16.5698L13.5269 16.6816L13.6266 16.6701V16.5698H13.5141ZM13.5141 14.4869H13.6266V14.3744H13.5141V14.4869ZM10.4804 14.4869V14.3744H10.3642L10.368 14.4905L10.4804 14.4869ZM10.8452 17.2268L10.736 17.2535L10.7663 17.3775L10.8855 17.3318L10.8452 17.2268ZM9.50806 14.4869L9.62051 14.4835L9.61719 14.3744H9.50806V14.4869ZM9.94152 17.6181L9.99041 17.7194L10.0736 17.6793L10.0504 17.5899L9.94152 17.6181ZM7.73374 19.0175L7.64599 19.0879L7.71766 19.1772L7.8057 19.104L7.73374 19.0175ZM5.98643 14.4869V14.3744H5.86699L5.87414 14.4936L5.98643 14.4869ZM10.4803 13.5151L10.3679 13.5114L10.3641 13.6276H10.4803V13.5151ZM10.9398 10.4124L10.9743 10.3053L10.8629 10.2694L10.8314 10.3821L10.9398 10.4124ZM12.6947 10.8192L12.7105 10.7079L12.7105 10.7079L12.6947 10.8192ZM13.5141 10.9009H13.6266V10.7945L13.5204 10.7886L13.5141 10.9009ZM13.5141 13.5151V13.6276H13.6266V13.5151H13.5141ZM14.486 14.4869V14.3744H14.3735V14.4869H14.486ZM14.486 16.5141H14.3735V16.6273L14.4867 16.6266L14.486 16.5141ZM17.2253 16.9274L17.1911 17.0346L17.3089 17.0722L17.3352 16.9514L17.2253 16.9274ZM17.5209 14.4869L17.6334 14.4905L17.6372 14.3744H17.5209V14.4869ZM17.521 13.5151V13.6276H17.6372L17.6334 13.5114L17.521 13.5151ZM14.486 13.5151H14.3735V13.6276H14.486V13.5151ZM14.486 10.9054L14.4805 10.793L14.3735 10.7982V10.9054H14.486ZM17.0552 10.3897L17.1635 10.3592L17.1306 10.2426L17.0168 10.284L17.0552 10.3897ZM18.4933 14.4869V14.3744H18.3842L18.3808 14.4835L18.4933 14.4869ZM18.1428 17.2786L18.0331 17.2534L18.0124 17.3436L18.0969 17.3813L18.1428 17.2786ZM20.4687 18.7545L20.3962 18.8405L20.4881 18.9179L20.5593 18.8212L20.4687 18.7545ZM22.0136 14.4869L22.1259 14.4936L22.133 14.3744H22.0136V14.4869ZM22.0137 13.5151V13.6276H22.1331L22.126 13.5084L22.0137 13.5151ZM18.4933 13.5151L18.3809 13.5185L18.3842 13.6276H18.4933V13.5151ZM17.9558 10.0049L17.906 9.90399L17.8212 9.94583L17.8478 10.0365L17.9558 10.0049ZM19.9918 8.65662L20.0758 8.58172L20.0028 8.4999L19.9191 8.5708L19.9918 8.65662ZM9.50801 13.5151V13.6276H9.61715L9.62046 13.5185L9.50801 13.5151ZM5.98625 13.5151L5.87395 13.5084L5.86686 13.6276H5.98625V13.5151ZM7.82776 8.86589L7.89259 8.77395L7.80775 8.71412L7.74131 8.7939L7.82776 8.86589ZM10.0254 10.0742L10.1335 10.1052L10.1611 10.009L10.0687 9.97038L10.0254 10.0742ZM14.486 21.4263H14.3735V21.5917L14.5273 21.5309L14.486 21.4263ZM14.486 17.4853L14.4852 17.3728L14.3735 17.3735V17.4853H14.486ZM16.9787 17.8695L17.0862 17.9027L17.1188 17.7969L17.0137 17.7625L16.9787 17.8695ZM16.2327 19.6356L16.1348 19.5803L16.1348 19.5803L16.2327 19.6356ZM15.6536 21.8565L15.584 21.7681L15.6766 21.9666L15.6536 21.8565ZM17.8845 18.229L17.9323 18.1272L17.816 18.0725L17.7772 18.1951L17.8845 18.229ZM19.8463 19.5008L19.9282 19.5779L20.0097 19.4914L19.9188 19.4148L19.8463 19.5008ZM8.50134 8.15063L8.42425 8.0687L8.32235 8.16458L8.43787 8.24352L8.50134 8.15063ZM10.3332 9.14966L10.2891 9.25317L10.3966 9.29892L10.4383 9.18983L10.3332 9.14966ZM12.3506 6.14156L12.4201 6.23006L12.3276 6.03144L12.3506 6.14156ZM13.5141 9.92776L13.5068 10.04L13.6266 10.0478V9.92776H13.5141ZM12.8316 9.85714L12.8477 9.7458L12.8474 9.74576L12.8316 9.85714ZM11.2439 9.48915L11.1388 9.44889L11.0962 9.55997L11.2095 9.59628L11.2439 9.48915ZM11.7686 8.36443L11.8666 8.41973L11.8666 8.41972L11.7686 8.36443ZM13.5141 6.57434H13.6266V6.40888L13.4727 6.46973L13.5141 6.57434ZM16.7489 9.46712L16.7877 9.5727L16.895 9.53324L16.8538 9.42663L16.7489 9.46712ZM14.486 9.9323H14.3735V10.0511L14.4921 10.0446L14.486 9.9323ZM14.486 6.5737L14.5273 6.46907L14.3735 6.40827V6.5737H14.486ZM16.2327 8.36443L16.1348 8.41973L16.1348 8.41978L16.2327 8.36443ZM19.2993 7.96923L19.3713 8.0557L19.4724 7.97158L19.3736 7.88474L19.2993 7.96923ZM17.6396 9.0758L17.5348 9.11676L17.5802 9.23279L17.691 9.17588L17.6396 9.0758ZM15.6512 6.14156L15.6743 6.03144L15.5818 6.23004L15.6512 6.14156ZM14.486 22.9857L14.48 22.8734L14.3735 22.8791V22.9857H14.486ZM14.486 23V23.1125H14.5985V23H14.486ZM13.5141 23H13.4016V23.1125H13.5141V23ZM13.5141 22.9857H13.6266V22.8791L13.5201 22.8734L13.5141 22.9857ZM12.4178 21.7681C11.5987 21.1239 10.8508 20.0013 10.3333 18.5236L10.1209 18.5979C10.6475 20.1017 11.4156 21.2662 12.2787 21.9449L12.4178 21.7681ZM10.1768 18.4601C9.42827 18.8344 8.79304 19.2588 8.31555 19.6517L8.45853 19.8254C8.9226 19.4435 9.54355 19.0283 10.2774 18.6614L10.1768 18.4601ZM8.30837 19.819C9.39566 20.8825 10.7799 21.6433 12.3252 21.9666L12.3713 21.7464C10.869 21.4321 9.52315 20.6925 8.4657 19.6582L8.30837 19.819ZM11.8666 19.5803C11.6279 19.1573 11.4102 18.6707 11.2247 18.1272L11.0118 18.1999C11.2014 18.7553 11.4245 19.2547 11.6706 19.6909L11.8666 19.5803ZM11.1594 18.2683C11.8322 18.0041 12.5696 17.7942 13.3468 17.6841L13.3152 17.4613C12.5185 17.5742 11.764 17.7892 11.0771 18.0589L11.1594 18.2683ZM13.3476 17.684C13.407 17.6751 13.4668 17.6675 13.5283 17.6597L13.5 17.4365C13.4388 17.4443 13.3766 17.4522 13.3144 17.4615L13.3476 17.684ZM13.4016 17.5481V21.4257H13.6266V17.5481H13.4016ZM13.5555 21.321C13.0631 21.1263 12.446 20.6065 11.8666 19.5803L11.6707 19.6909C12.2655 20.7443 12.9165 21.3103 13.4727 21.5303L13.5555 21.321ZM13.2103 16.7219C13.3146 16.7066 13.4199 16.6938 13.5269 16.6816L13.5013 16.458C13.3935 16.4704 13.2855 16.4835 13.1777 16.4993L13.2103 16.7219ZM13.6266 16.5698V14.4869H13.4016V16.5698H13.6266ZM13.5141 14.3744H10.4804V14.5994H13.5141V14.3744ZM10.368 14.4905C10.4005 15.4945 10.5322 16.4222 10.736 17.2535L10.9545 17.2C10.7546 16.3844 10.6249 15.4721 10.5928 14.4832L10.368 14.4905ZM10.8855 17.3318C11.6023 17.0572 12.3846 16.8392 13.2098 16.722L13.1782 16.4992C12.3342 16.6191 11.5355 16.8418 10.805 17.1217L10.8855 17.3318ZM9.39561 14.4903C9.43039 15.6328 9.58597 16.6932 9.83261 17.6463L10.0504 17.5899C9.80815 16.6537 9.6548 15.6099 9.62051 14.4835L9.39561 14.4903ZM9.89263 17.5168C8.98893 17.9528 8.2264 18.4612 7.66178 18.931L7.8057 19.104C8.35601 18.646 9.10301 18.1476 9.99041 17.7194L9.89263 17.5168ZM7.82149 18.9471C6.8282 17.7091 6.19973 16.1659 6.09873 14.4802L5.87414 14.4936C5.97801 16.2274 6.62452 17.8147 7.64599 19.0879L7.82149 18.9471ZM5.98643 14.5994H9.50806V14.3744H5.98643V14.5994ZM10.5928 13.5187C10.6296 12.3819 10.7952 11.3471 11.0481 10.4427L10.8314 10.3821C10.5734 11.3046 10.4052 12.3574 10.3679 13.5114L10.5928 13.5187ZM10.9053 10.5195C11.4662 10.7001 12.0604 10.8428 12.6789 10.9306L12.7105 10.7079C12.1057 10.622 11.524 10.4823 10.9743 10.3053L10.9053 10.5195ZM12.6788 10.9306C12.9508 10.9693 13.2274 10.9975 13.5078 11.0132L13.5204 10.7886C13.2467 10.7732 12.9765 10.7457 12.7105 10.7079L12.6788 10.9306ZM13.4016 10.9009V13.5151H13.6266V10.9009H13.4016ZM13.5141 13.4026H10.4803V13.6276H13.5141V13.4026ZM14.3735 14.4869V16.5141H14.5985V14.4869H14.3735ZM14.4867 16.6266C15.3652 16.6208 16.2752 16.7424 17.1911 17.0346L17.2595 16.8203C16.3194 16.5203 15.3857 16.3957 14.4852 16.4016L14.4867 16.6266ZM17.3352 16.9514C17.4991 16.1995 17.6047 15.3744 17.6334 14.4905L17.4085 14.4832C17.3802 15.3538 17.2763 16.1653 17.1154 16.9035L17.3352 16.9514ZM17.5209 14.3744H14.486V14.5994H17.5209V14.3744ZM17.521 13.4026H14.486V13.6276H17.521V13.4026ZM14.5985 13.5151V10.9054H14.3735V13.5151H14.5985ZM14.4914 11.0178C15.3417 10.9764 16.2163 10.8144 17.0936 10.4954L17.0168 10.284C16.1618 10.5948 15.3095 10.7527 14.4805 10.793L14.4914 11.0178ZM16.9469 10.4202C17.2035 11.3298 17.3715 12.3722 17.4086 13.5187L17.6334 13.5114C17.5958 12.3476 17.4252 11.287 17.1635 10.3592L16.9469 10.4202ZM18.3808 14.4835C18.3506 15.476 18.2278 16.4056 18.0331 17.2534L18.2524 17.3038C18.4505 16.4412 18.5751 15.4971 18.6057 14.4903L18.3808 14.4835ZM18.0969 17.3813C18.869 17.7261 19.6405 18.2037 20.3962 18.8405L20.5412 18.6684C19.77 18.0186 18.9806 17.5295 18.1886 17.1759L18.0969 17.3813ZM20.5593 18.8212C21.4618 17.5953 22.0291 16.1078 22.1259 14.4936L21.9013 14.4802C21.8072 16.0496 21.2557 17.4957 20.3781 18.6878L20.5593 18.8212ZM22.0136 14.3744H18.4933V14.5994H22.0136V14.3744ZM22.0137 13.4026H18.4933V13.6276H22.0137V13.4026ZM18.6058 13.5116C18.5664 12.2139 18.3712 11.0214 18.0637 9.97319L17.8478 10.0365C18.1496 11.0654 18.342 12.2389 18.3809 13.5185L18.6058 13.5116ZM18.0056 10.1057C18.699 9.76335 19.3888 9.31509 20.0646 8.74245L19.9191 8.5708C19.2569 9.13194 18.5824 9.56998 17.906 9.90399L18.0056 10.1057ZM19.9079 8.73153C21.0578 10.0201 21.7922 11.6866 21.9014 13.5217L22.126 13.5084C22.0137 11.6208 21.2582 9.9067 20.0758 8.58172L19.9079 8.73153ZM9.50801 13.4026H5.98625V13.6276H9.50801V13.4026ZM6.09855 13.5217C6.20204 11.783 6.86672 10.1957 7.91421 8.93788L7.74131 8.7939C6.66416 10.0874 5.98039 11.7201 5.87395 13.5084L6.09855 13.5217ZM7.76293 8.95783C8.37299 9.38799 9.12604 9.82029 9.98199 10.178L10.0687 9.97038C9.22859 9.61929 8.48987 9.19509 7.89259 8.77395L7.76293 8.95783ZM9.91722 10.0432C9.62154 11.0749 9.43406 12.2426 9.39556 13.5117L9.62046 13.5185C9.65841 12.2672 9.84322 11.1181 10.1335 10.1052L9.91722 10.0432ZM14.5985 21.4263V17.4853H14.3735V21.4263H14.5985ZM14.4867 17.5978C15.2841 17.5926 16.1102 17.7038 16.9437 17.9764L17.0137 17.7625C16.1552 17.4818 15.3048 17.3675 14.4852 17.3728L14.4867 17.5978ZM16.8712 17.8363C16.6668 18.498 16.4153 19.0833 16.1348 19.5803L16.3307 19.6909C16.62 19.1785 16.8776 18.5781 17.0862 17.9027L16.8712 17.8363ZM16.1348 19.5803C15.5548 20.6077 14.9373 21.127 14.4446 21.3217L14.5273 21.5309C15.0838 21.311 15.7353 20.7457 16.3307 19.6909L16.1348 19.5803ZM15.7232 21.9449C16.6487 21.2165 17.4653 19.9299 17.9918 18.2629L17.7772 18.1951C17.2593 19.8349 16.4629 21.0764 15.584 21.7681L15.7232 21.9449ZM17.8366 18.3308C18.4848 18.6355 19.134 19.0474 19.7738 19.5868L19.9188 19.4148C19.2647 18.8632 18.599 18.4406 17.9323 18.1272L17.8366 18.3308ZM19.7644 19.4237C18.6758 20.5801 17.2432 21.4085 15.6305 21.7464L15.6766 21.9666C17.3357 21.619 18.8089 20.7669 19.9282 19.5779L19.7644 19.4237ZM8.43787 8.24352C8.95664 8.59799 9.58363 8.95276 10.2891 9.25317L10.3773 9.04615C9.686 8.75181 9.07196 8.40428 8.56481 8.05775L8.43787 8.24352ZM10.4383 9.18983C10.9501 7.8509 11.6541 6.83121 12.4201 6.23006L12.2812 6.05306C11.4737 6.68677 10.7496 7.74547 10.2281 9.10949L10.4383 9.18983ZM12.3276 6.03144C10.8357 6.34288 9.49382 7.06233 8.42425 8.0687L8.57843 8.23257C9.61862 7.25384 10.9233 6.55444 12.3736 6.25169L12.3276 6.03144ZM13.5213 9.8155C13.2936 9.80077 13.0689 9.77774 12.8477 9.7458L12.8156 9.96849C13.0429 10.0013 13.2735 10.0249 13.5068 10.04L13.5213 9.8155ZM12.8474 9.74576C12.302 9.66835 11.7761 9.54161 11.2782 9.38202L11.2095 9.59628C11.7182 9.75933 12.2566 9.88915 12.8158 9.96853L12.8474 9.74576ZM11.3489 9.5294C11.505 9.12216 11.6793 8.75146 11.8666 8.41973L11.6706 8.30913C11.4775 8.6512 11.2985 9.03203 11.1388 9.44889L11.3489 9.5294ZM11.8666 8.41972C12.446 7.39288 13.0631 6.87366 13.5555 6.67896L13.4727 6.46973C12.9165 6.68966 12.2655 7.255 11.6706 8.30914L11.8666 8.41972ZM13.4016 6.57434V9.92776H13.6266V6.57434H13.4016ZM16.71 9.36154C15.9572 9.63861 15.2085 9.78036 14.4799 9.81996L14.4921 10.0446C15.2417 10.0039 16.0125 9.85799 16.7877 9.5727L16.71 9.36154ZM14.5985 9.9323V6.5737H14.3735V9.9323H14.5985ZM14.4446 6.67832C14.9373 6.87303 15.5548 7.39226 16.1348 8.41973L16.3307 8.30913C15.7353 7.25432 15.0838 6.689 14.5273 6.46907L14.4446 6.67832ZM16.1348 8.41978C16.3186 8.74506 16.49 9.10869 16.6439 9.50761L16.8538 9.42663C16.6963 9.01829 16.5203 8.64464 16.3307 8.30908L16.1348 8.41978ZM19.2274 7.88275C18.6854 8.33379 18.1369 8.69392 17.5882 8.97573L17.691 9.17588C18.2549 8.88626 18.8171 8.51688 19.3713 8.0557L19.2274 7.88275ZM17.7444 9.03484C17.2254 7.70725 16.5132 6.67551 15.7207 6.05309L15.5818 6.23004C16.3335 6.82045 17.0255 7.81397 17.5348 9.11676L17.7444 9.03484ZM15.6282 6.25168C16.9878 6.5359 18.2194 7.16951 19.2251 8.05371L19.3736 7.88474C18.3396 6.97561 17.073 6.32384 15.6743 6.03144L15.6282 6.25168ZM22.8875 13.999C22.8875 18.7461 19.1652 22.6239 14.48 22.8734L14.492 23.0981C19.2959 22.8423 23.1125 18.8664 23.1125 13.999H22.8875ZM14.3735 22.9857V23H14.5985V22.9857H14.3735ZM14.486 22.8875H13.5141V23.1125H14.486V22.8875ZM13.6266 23V22.9857H13.4016V23H13.6266ZM13.5201 22.8734C8.83483 22.6239 5.1125 18.7461 5.1125 13.999H4.8875C4.8875 18.8664 8.70408 22.8423 13.5081 23.0981L13.5201 22.8734ZM5.1125 13.999C5.1125 9.0913 9.09159 5.1125 14 5.1125V4.8875C8.96734 4.8875 4.8875 8.96701 4.8875 13.999H5.1125ZM14 5.1125C18.9084 5.1125 22.8875 9.0913 22.8875 13.999H23.1125C23.1125 8.96701 19.0327 4.8875 14 4.8875V5.1125Z" fill="white"/>
</mask>
<g mask="url(#mask0_8_3293)">
</g>
</svg>
