<?xml version="1.0" encoding="UTF-8"?>
<svg width="24px" height="24px" viewBox="0 0 24 24" version="1.1" xmlns="http://www.w3.org/2000/svg" xmlns:xlink="http://www.w3.org/1999/xlink">
    <title>Icons/Like – 24</title>
    <g id="Icons/Like-–-24" stroke="none" stroke-width="1" fill="none" fill-rule="evenodd">
        <rect id="Bound" x="0" y="0" width="24" height="24"></rect>
        <path d="M6.47059,21.0000028 L6.47059,11.2664028 L6.47059,21.0000028 Z M6.47059,11.2664028 C5.98808,11.4326028 5.59068,11.4089028 5.29532,11.4089028 L3.59508,11.4089028 C2.38604,11.4089028 2.02094,11.9611028 2.02093,12.4567028 L2,19.2936028 C2,20.4706028 2.55882,21 3.21235,20.9889028 L15.9307,21 C19.5949,21 21,17.5528028 21,15.7687028 L21,12.1078028 C21,9.62538276 18.708,9.03369276 17.5621,8.95884276 L14.9299,8.95884276 C14.3397,8.95884276 14.1948,8.55876276 14.1961,8.35873276 C14.1961,4.55574276 12.9761,2.93975276 11.2997,3.00171276 C9.9685,3.05091276 9.6099,4.18658276 9.5978,4.75688276 L9.5978,7.66306276 C9.5978,9.52172276 7.84486,10.7932028 6.47059,11.2664028 Z" id="Shape-Copy" stroke="#666666" stroke-width="1.5"></path>
    </g>
</svg>