<svg width="24" height="24" viewBox="0 0 24 24" fill="none" xmlns="http://www.w3.org/2000/svg">
<path d="M12 20.2261C15.0376 20.2261 17.5 17.7637 17.5 14.7261C17.5 11.6885 15.0376 9.2261 12 9.2261C8.96243 9.2261 6.5 11.6885 6.5 14.7261C6.5 17.7637 8.96243 20.2261 12 20.2261Z" fill="none"/>
<path d="M3.21215 2.4721C3.49642 2.17083 3.97109 2.15705 4.27236 2.44132C4.57363 2.72559 4.58741 3.20027 4.30314 3.50153L3.21215 2.4721ZM4.31238 7.87918C4.59114 8.18555 4.56876 8.6599 4.26239 8.93866C3.95601 9.21742 3.48167 9.19504 3.20291 8.88867L4.31238 7.87918ZM1.32547 5.56442L1.87097 6.07914L1.32547 5.56442ZM1.32416 5.70941L0.76942 6.21415L1.32416 5.70941ZM4.30314 3.50153L1.87097 6.07914L0.779976 5.0497L3.21215 2.4721L4.30314 3.50153ZM1.8789 5.20467L4.31238 7.87918L3.20291 8.88867L0.76942 6.21415L1.8789 5.20467ZM1.87097 6.07914C2.10178 5.83453 2.10523 5.45342 1.8789 5.20467L0.76942 6.21415C0.46803 5.88291 0.472629 5.37543 0.779976 5.0497L1.87097 6.07914Z" fill="#666666"/>
<path d="M20.7995 2.48201C20.5153 2.18067 20.0407 2.16676 19.7393 2.45095C19.438 2.73514 19.4241 3.20981 19.7083 3.51115L20.7995 2.48201ZM19.699 7.89199C19.4204 8.19843 19.4429 8.67277 19.7493 8.95145C20.0558 9.23013 20.5301 9.20763 20.8088 8.90118L19.699 7.89199ZM22.6861 5.57563L22.1405 6.0902L22.6861 5.57563ZM22.6874 5.72057L22.1326 5.21598L22.6874 5.72057ZM19.7083 3.51115L22.1405 6.0902L23.2318 5.06105L20.7995 2.48201L19.7083 3.51115ZM22.1326 5.21598L19.699 7.89199L20.8088 8.90118L23.2423 6.22517L22.1326 5.21598ZM22.1405 6.0902C21.9098 5.84562 21.9064 5.46469 22.1326 5.21598L23.2423 6.22517C23.5435 5.89398 23.5389 5.38673 23.2318 5.06105L22.1405 6.0902Z" fill="#666666"/>
<path d="M12 20.9761C15.4518 20.9761 18.25 18.1779 18.25 14.7261C18.25 11.2743 15.4518 8.4761 12 8.4761C8.54822 8.4761 5.75 11.2743 5.75 14.7261C5.75 18.1779 8.54822 20.9761 12 20.9761Z" stroke="#666666" stroke-width="1.5"/>
<path d="M20.2332 6.41013C20.6474 6.40669 20.9804 6.06813 20.9769 5.65393C20.9735 5.23973 20.6349 4.90674 20.2207 4.91018L20.2332 6.41013ZM10.032 9.5819C14.9433 7.11557 17.4929 6.43288 20.2332 6.41013L20.2207 4.91018C17.1487 4.93568 14.3586 5.73067 9.35889 8.24143L10.032 9.5819Z" fill="#809B9D"/>
<path d="M20.2601 6.38908C20.6743 6.38564 21.0073 6.04708 21.0039 5.63288C21.0004 5.21868 20.6619 4.88569 20.2477 4.88913L20.2601 6.38908ZM10.0668 9.56471C14.979 7.09789 17.5205 6.41182 20.2601 6.38908L20.2477 4.88913C17.175 4.91464 14.3924 5.71397 9.39355 8.22424L10.0668 9.56471Z" fill="#666666"/>
<path d="M3.73986 6.41013C3.32566 6.40669 2.99268 6.06813 2.99612 5.65393C2.99955 5.23973 3.33812 4.90674 3.75232 4.91018L3.73986 6.41013ZM13.9818 9.59417C8.83967 7.36078 6.46567 6.43276 3.73986 6.41013L3.75232 4.91018C6.83881 4.9358 9.50123 6.01275 14.5793 8.21833L13.9818 9.59417Z" fill="#666666"/>
</svg>
