<?xml version="1.0" encoding="UTF-8"?>
<svg width="24px" height="24px" viewBox="0 0 24 24" version="1.1" xmlns="http://www.w3.org/2000/svg" xmlns:xlink="http://www.w3.org/1999/xlink">
    <title>Icons/Whatsapp – 24</title>
    <g id="Icons/Whatsapp-–-24" stroke="none" stroke-width="1" fill="none" fill-rule="evenodd">
        <rect id="Bound" x="0" y="0" width="24" height="24"></rect>
        <g id="Group" transform="translate(3.000000, 3.000000)">
            <path d="M0,9.00854319 C0,2.74068626 5.38585137,-0.387862122 9.80521817,0.0384304446 C13.6585741,0.41012555 18,3.4326421 18,8.91100775 C18,16.9091328 9.8060236,19.8039068 4.60756134,16.8955382 C-0.346950251,18.3987615 0.0989653664,18.4119439 1.33333333,13.7634317 C0.568250151,12.4830315 0,10.9053894 0,9.00854319 Z" id="Path" stroke="#666666" stroke-width="1.35"></path>
            <path d="M11.4727317,10.118013 C11.2718425,10.042614 11.1320935,10.0049144 10.9836101,10.2311117 C10.8351268,10.4667338 10.4246141,10.9945273 10.3023337,11.1453255 C10.1800533,11.3055485 10.0490386,11.3243983 9.83068077,11.2018748 C9.61232294,11.0887761 8.91357786,10.8343043 8.0925524,10.042614 C7.4462132,9.42057158 7.01823185,8.65715593 6.88721714,8.42153381 C6.76493676,8.1859117 6.86974852,8.0633882 6.98329459,7.9408647 C7.07937204,7.83719097 7.20165243,7.66754304 7.30646419,7.53559466 C7.41127595,7.40364628 7.45494752,7.29997255 7.52482203,7.14917439 C7.59469653,6.98895135 7.55975928,6.85700297 7.5073534,6.74390436 C7.45494752,6.63080574 7.01823185,5.48096982 6.84354558,5.00972559 C6.66885931,4.55733113 6.48543873,4.61388044 6.35442403,4.60445555 L5.93517698,4.60445555 C5.78669365,4.60445555 5.5596015,4.66100486 5.35871229,4.89662698 C5.1665574,5.13224909 4.60756134,5.69774217 4.60756134,6.84757809 C4.60756134,7.99741401 5.38491523,9.10955039 5.489727,9.26034854 C5.59453876,9.42057158 7.01823185,11.7767927 9.18434158,12.7852554 C9.69966607,13.0303024 10.1014445,13.1716756 10.4158798,13.2753494 C10.9312043,13.4544222 11.4028572,13.4261475 11.7784327,13.3695982 C12.1976797,13.303624 13.0623767,12.8041051 13.237063,12.2574618 C13.4204836,11.7108185 13.4204836,11.2489992 13.3593434,11.1453255 C13.2982032,11.0416517 13.1671885,10.9945273 12.9488307,10.8814287 C12.7304728,10.7683301 11.6648866,10.202837 11.4727317,10.118013 Z" id="Path" fill="#666666" fill-rule="nonzero"></path>
        </g>
    </g>
</svg>